<?xml version="1.0" encoding="UTF-8"?>
<svg width="139px" height="165px" viewBox="0 0 139 165" version="1.1" xmlns="http://www.w3.org/2000/svg" xmlns:xlink="http://www.w3.org/1999/xlink">
    <!-- Generator: Sketch 53.2 (72643) - https://sketchapp.com -->
    <title>Group</title>
    <desc>Created with Sketch.</desc>
    <g id="Pages" stroke="none" stroke-width="1" fill="none" fill-rule="evenodd">
        <g id="Index" transform="translate(-1098.000000, -1226.000000)" fill-rule="nonzero">
            <g id="services" transform="translate(-5.000000, 1142.000000)">
                <g id="Delivery" transform="translate(138.000000, 72.000000)">
                    <g id="delivery">
                        <g id="Group" transform="translate(965.000000, 12.000000)">
                            <path d="M93.133,39.767 C101.254,39.767 108.078,34.225 110.033,26.718 L115.5,27.532 C116.678009,27.7061898 117.774624,26.8936837 117.951,25.716 C118.126348,24.5377012 117.313298,23.4403528 116.135,23.265 L110.594,22.44 C110.596,22.394 110.598,22.349 110.598,22.302 C110.598,22.12 110.592,21.94 110.584,21.76 C110.584,21.76 110.133,15.242 109.51,12.523 C108.889,9.804 106.975,9.227 106.975,9.227 C97.205,7.015 87.203,6.789 84.6,6.789 C81.997,6.789 81.442,8.121 81.442,8.121 L78.292,13.117 L78.282,13.114 C78.206,13.236 78.136,13.359 78.063,13.482 L78.036,13.525 C76.4826044,16.1889884 75.6656818,19.2181937 75.669,22.302 C75.668,31.948 83.488,39.767 93.133,39.767 L93.133,39.767 Z M131.535,79.076 L131.535,79.074 L104.793,76.906 L95.547,55.794 C95.547,55.794 95.086,53.02 89.539,47.318 C83.99,41.616 72.74,43.928 72.74,43.928 C72.74,43.928 48.854,48.397 40.995,50.246 C33.135,52.096 32.827,60.109 32.827,60.109 L32.195,64.628 L17.017,61.687 C15.3919701,61.3787121 13.8223678,62.4385061 13.501,64.061 L6.09,102.303 C5.77944483,103.928828 6.84079357,105.500071 8.465,105.819 L59.661,115.742 C59.776,115.764 59.891,115.766 60.007,115.775 L60.009,115.775 C59.281,115.879 58.718,115.74 58.718,115.74 L49.318,113.891 L46.236,130.996 L22.676,151.359 C20.5104679,153.067936 19.4700129,155.835985 19.9737095,158.548232 C20.477406,161.260478 22.4423281,163.470393 25.0770445,164.287866 C27.7117609,165.105339 30.5825055,164.395785 32.533,162.445 C32.533,162.445 60.258,140.395 62.108,138.854 C63.958,137.314 64.881,135.001 64.881,135.001 C64.881,135.001 69.422,121.053 70.66,118.127 C71.508,116.123 75.592,117.048 75.592,117.048 L98.477,125.679 L106.092,154.741 C106.174,155.371 106.334,155.975 106.565,156.545 L106.567,156.545 C108.02114,160.153422 112.013132,162.028541 115.718738,160.843755 C119.424344,159.65897 121.588012,155.815714 120.679,152.033 C119.837,147.068 116.075,124.987 115.118,120.207 C114.04,114.813 110.497,113.273 110.497,113.273 C110.497,113.273 89.229,101.715 87.843,100.944 C86.456,100.174 86.765,98.17 86.765,98.17 L90.695,83.839 L93.468,89.695 C93.468,89.695 95.087,92.969 97.552,93.086 L130.909,93.906 C132.879732,93.906 134.769733,93.1230614 136.163157,91.7294498 C137.556581,90.3358383 138.339265,88.4457318 138.339,86.475 C138.33662,82.6159582 135.380321,79.4011353 131.535,79.076 L131.535,79.076 Z M60.104,63.807 L58.315,69.687 L68.213,71.606 L47.999,67.689 L48.547,65.193 L60.104,63.807 Z M57.855,109.28 L12.551,100.499 L18.821,68.146 L31.363,70.577 L29.745,82.144 L29.105,86.55 C29.1,86.576 29.097,86.606 29.093,86.632 L29.075,86.759 L29.077,86.759 C28.8039166,88.8772686 29.4556018,91.0106125 30.8657716,92.6146878 C32.2759414,94.2187631 34.3082013,95.1384204 36.444,95.139 C38.5774166,95.1388457 40.6077732,94.2213894 42.0178061,92.6203667 C43.427839,91.019344 44.0814056,88.8893381 43.812,86.773 L46.713,73.55 L64.126,76.924 L57.855,109.28 L57.855,109.28 Z M25.05,18.008 L63.077,18.008 C64.177,18.008 65.077,17.112 65.077,16.018 C65.077,14.924 64.177,14.028 63.077,14.028 L25.05,14.028 C23.95,14.028 23.05,14.924 23.05,16.018 C23.05,17.112 23.95,18.008 25.05,18.008 Z M38.08,24.025 C36.98,24.025 36.08,24.921 36.08,26.015 C36.08,27.109 36.98,28.005 38.08,28.005 L61.039,28.005 C62.139,28.005 63.039,27.109 63.039,26.015 C63.0334966,24.9143377 62.139676,24.0249862 61.039,24.025 L38.08,24.025 L38.08,24.025 Z" id="Shape" fill="#FFFFFF"></path>
                            <path d="M87.098,33.732 C95.219,33.732 102.043,28.19 103.998,20.683 L109.465,21.497 C110.643009,21.6711898 111.739624,20.8586837 111.916,19.681 C112.091348,18.5027012 111.278298,17.4053528 110.1,17.23 L104.559,16.405 C104.561,16.359 104.563,16.314 104.563,16.267 C104.563,16.085 104.557,15.905 104.549,15.725 C104.549,15.725 104.098,9.207 103.475,6.488 C102.854,3.769 100.94,3.192 100.94,3.192 C91.17,0.98 81.168,0.754 78.564,0.754 C75.96,0.754 75.406,2.086 75.406,2.086 L72.256,7.082 L72.246,7.079 C72.17,7.2 72.1,7.324 72.027,7.447 L72,7.49 C70.4466044,10.1539884 69.6296818,13.1831937 69.633,16.267 C69.633,25.913 77.453,33.732 87.098,33.732 Z M125.5,73.041 L125.5,73.039 L98.758,70.871 L89.512,49.759 C89.512,49.759 89.051,46.985 83.504,41.283 C77.955,35.581 66.705,37.893 66.705,37.893 C66.705,37.893 42.819,42.362 34.96,44.21 C27.1,46.06 26.792,54.073 26.792,54.073 L23.71,76.109 L23.07,80.515 C23.065,80.541 23.062,80.571 23.058,80.597 L23.04,80.724 L23.042,80.724 C22.7689166,82.8422686 23.4206018,84.9756125 24.8307716,86.5796878 C26.2409414,88.1837631 28.2732013,89.1034204 30.409,89.104 C32.5424166,89.1038457 34.5727732,88.1863894 35.9828061,86.5853667 C37.392839,84.984344 38.0464056,82.8543381 37.777,80.738 L42.511,59.157 L54.068,57.771 L52.279,63.651 L62.177,65.57 C63.8010196,65.8899019 64.8620116,67.4610634 64.552,69.087 L57.14,107.33 C56.8624565,108.739312 55.6283766,109.756548 54.192,109.76 C54.12,109.76 54.046,109.744 53.972,109.739 C53.244,109.843 52.681,109.704 52.681,109.704 L43.281,107.855 L40.199,124.96 L16.639,145.323 C14.4734679,147.031936 13.4330129,149.799985 13.9367095,152.512232 C14.440406,155.224478 16.4053281,157.434393 19.0400445,158.251866 C21.6747609,159.069339 24.5455055,158.359785 26.496,156.409 C26.496,156.409 54.221,134.359 56.071,132.818 C57.921,131.278 58.844,128.965 58.844,128.965 C58.844,128.965 63.385,115.017 64.623,112.091 C65.471,110.087 69.555,111.012 69.555,111.012 L92.44,119.643 L100.055,148.705 C100.137,149.335 100.297,149.939 100.528,150.509 L100.53,150.509 C101.98414,154.117422 105.976132,155.992541 109.681738,154.807755 C113.387344,153.62297 115.551012,149.779714 114.642,145.997 C113.8,141.032 110.038,118.951 109.081,114.171 C108.003,108.777 104.46,107.237 104.46,107.237 C104.46,107.237 83.193,95.682 81.807,94.91 C80.42,94.14 80.729,92.136 80.729,92.136 L84.659,77.805 L87.432,83.661 C87.432,83.661 89.051,86.935 91.516,87.052 L124.873,87.872 C128.843461,87.8569226 132.100447,84.7228325 132.268155,80.7558862 C132.435862,76.78894 129.455021,73.3911376 125.5,73.041 Z" id="Shape" fill="#3A3A3A"></path>
                            <path d="M53.971,109.739 L53.973,109.739 C54.046,109.745 54.12,109.76 54.193,109.76 C55.6,109.76 56.864,108.76 57.141,107.33 L64.553,69.087 C64.8630116,67.4610634 63.8020196,65.8899019 62.178,65.57 L41.964,61.653 L40.678,67.515 L58.091,70.889 L51.82,103.243 L6.516,94.464 L12.786,62.111 L25.328,64.542 L26.16,58.592 L10.982,55.65 C9.35697005,55.3417121 7.78736784,56.4015061 7.466,58.024 L0.055,96.268 C-0.255555165,97.8938283 0.805793567,99.4650713 2.43,99.784 L53.626,109.707 C53.74,109.729 53.855,109.73 53.971,109.739 Z" id="Shape" fill="#F0C42E"></path>
                            <path d="M59.042,9.982 C59.0364966,11.0826623 58.142676,11.9720138 57.042,11.972 L19.015,11.972 C17.915,11.972 17.015,11.076 17.015,9.982 C17.015,8.888 17.915,7.992 19.015,7.992 L57.042,7.992 C58.142,7.993 59.042,8.888 59.042,9.982 L59.042,9.982 Z M57.004,19.98 C57.004,21.074 56.104,21.97 55.004,21.97 L32.044,21.97 C30.944,21.97 30.044,21.074 30.044,19.98 C30.0495034,18.8793377 30.943324,17.9899862 32.044,17.99 L55.003,17.99 C56.104,17.99 57.004,18.886 57.004,19.98 L57.004,19.98 Z" id="Shape" fill="#F0C52E"></path>
                        </g>
                    </g>
                </g>
            </g>
        </g>
    </g>
</svg>